<svg xmlns="http://www.w3.org/2000/svg" viewBox="0 0 1291.2 265.77"><title>LOGO</title><g id="Layer_2" data-name="Layer 2"><g id="Layer_1-2" data-name="Layer 1"><path d="M194.35,149.49v68.72H145.13V39.87h49.22v65.86H263A132.89,132.89,0,0,0,40.29,37.59,112,112,0,0,1,69.4,45.81q22,9.75,35.55,27.46t16.16,41.26H71.65a42.06,42.06,0,0,0-9.27-19.38,44.54,44.54,0,0,0-18-12.25q-11.05-4.28-25.57-4.27c-2.57,0-5,.12-7.46.33a133.35,133.35,0,0,0-3.28,99.77,78.71,78.71,0,0,0,10.74.72,74.42,74.42,0,0,0,25.57-4,42.07,42.07,0,0,0,18-12.13,43,43,0,0,0,9.27-19.74h49.46Q118.5,167.09,105,184.8T69.4,212.26a115.08,115.08,0,0,1-35.71,9,132.88,132.88,0,0,0,231.05-71.8Z"/><path d="M475.55,61.25l58,127.5H496L447.33,76.21h10.2L408.74,188.75H371.17l58-127.5Zm-67.83,103V135.88h87.89v28.39Z"/><path d="M668.5,133.5a67,67,0,0,1-4.68,22,56.68,56.68,0,0,1-12.07,18.61A54.41,54.41,0,0,1,632,186.88q-11.82,4.59-27.45,4.59a88.62,88.62,0,0,1-28.05-4.33,67.84,67.84,0,0,1-23-12.84A58.12,58.12,0,0,1,538,153.39Q532.5,141,532.5,125t5.61-28.39A58.34,58.34,0,0,1,553.83,75.7a69.38,69.38,0,0,1,23.46-12.83,94,94,0,0,1,29.16-4.34q21.07,0,36.38,6.46t24.65,17.68a55.73,55.73,0,0,1,12.07,26H644a22.5,22.5,0,0,0-6.89-11.13,34.65,34.65,0,0,0-12.92-7.14,58,58,0,0,0-17.59-2.47q-11.91,0-20.57,4.17a30.28,30.28,0,0,0-13.43,12.41q-4.77,8.25-4.76,20.48,0,12.42,5.1,20.91a31.58,31.58,0,0,0,14.53,12.75q9.43,4.26,22.19,4.25a63.72,63.72,0,0,0,21.93-3.48,35,35,0,0,0,15.21-10.29,28.72,28.72,0,0,0,6.55-16.32Zm-55.42,14.11V122.79h67.66v66h-25l-4.93-50.49,6.63,9.35Z"/><path d="M741.42,125l-8.33,51.17-14.28-16h97.58v28.56H697.9L707.59,125,697.9,61.25H815.54V89.81H718.81l14.28-16Zm69.36-12.75v25.5H717.45v-25.5Z"/><path d="M954.94,164.1l-10.88,2.21V61.25h34.17v127.5H933.86L860.25,83.86,871,81.65v107.1H836.79V61.25h45.56Z"/><path d="M1143.64,135.37a58.14,58.14,0,0,1-11.56,29.5,63.85,63.85,0,0,1-25.42,19.63q-15.72,7-36.12,7-22.27,0-38.93-8.33a62.67,62.67,0,0,1-25.93-23.29q-9.25-15-9.26-34.85t9.26-34.85a62.8,62.8,0,0,1,25.93-23.29q16.67-8.32,38.93-8.33,20.4,0,36.12,7a64,64,0,0,1,25.42,19.64,58.1,58.1,0,0,1,11.56,29.49h-35.36a30.06,30.06,0,0,0-6.63-13.85A31.79,31.79,0,0,0,1088.81,92,50.4,50.4,0,0,0,1070.54,89q-11.89,0-20.57,4.34a30.59,30.59,0,0,0-13.26,12.41q-4.59,8.07-4.59,19.29t4.59,19.3A30.59,30.59,0,0,0,1050,156.71q8.67,4.33,20.57,4.33a53,53,0,0,0,18.27-2.89,30,30,0,0,0,12.84-8.67,30.68,30.68,0,0,0,6.63-14.11Z"/><path d="M1136.5,61.25h39.1l46.24,58.82H1206l46.07-58.82h39.1l-66,83.81-22.61.34Zm59.84,127.5v-62h35.36v62.05Z"/></g></g></svg>