<svg xmlns="http://www.w3.org/2000/svg" viewBox="0 0 1240.2 254"><title>LOGO-FINAL</title><g id="Layer_2" data-name="Layer 2"><g id="Layer_1-2" data-name="Layer 1"><path d="M195.07,137.52l20.08,65.68h-47L116,32.75h47l19.25,63h67.82A127,127,0,0,0,38.46,36q3.48,1.14,6.9,2.46a130.65,130.65,0,0,1,42,26.25,112.89,112.89,0,0,1,27.51,39.43H67.6A60.34,60.34,0,0,0,53.07,85.59a63.65,63.65,0,0,0-20.74-11.7,74.63,74.63,0,0,0-18.87-3.84,127.44,127.44,0,0,0-9.37,89c.91.44,1.82.87,2.75,1.28a72.86,72.86,0,0,0,29.27,5.79q13.86,0,23.25-3.86T73,150.7q4.23-7.72,3.09-18.86h47.27q4.38,22.5-3.4,39.43T94,197.52q-18.17,9.31-45.44,9.31A149.26,149.26,0,0,1,27,205.3a127,127,0,0,0,226.56-67.78Z"/><path d="M424.55,63.25l58,127.5H445L396.33,78.21h10.2L357.74,190.75H320.17l58-127.5Zm-67.83,103V137.88h87.89v28.39Z"/><path d="M617.5,135.5a67.15,67.15,0,0,1-4.67,22,56.72,56.72,0,0,1-12.07,18.62A54.58,54.58,0,0,1,581,188.88q-11.82,4.59-27.46,4.59a88.71,88.71,0,0,1-28.05-4.34,67.77,67.77,0,0,1-23-12.83A58.29,58.29,0,0,1,487,155.39Q481.5,143,481.5,127t5.61-28.39A58.25,58.25,0,0,1,502.84,77.7,69.23,69.23,0,0,1,526.3,64.86a93.85,93.85,0,0,1,29.15-4.33q21.07,0,36.38,6.46t24.65,17.68a55.63,55.63,0,0,1,12.07,26H593a22.47,22.47,0,0,0-6.88-11.14,35,35,0,0,0-12.92-7.14,58.06,58.06,0,0,0-17.6-2.46q-11.89,0-20.57,4.16a30.33,30.33,0,0,0-13.43,12.41q-4.75,8.25-4.76,20.49,0,12.41,5.1,20.91a31.6,31.6,0,0,0,14.54,12.75q9.43,4.25,22.18,4.25a63.47,63.47,0,0,0,21.93-3.49,35.07,35.07,0,0,0,15.22-10.28,28.78,28.78,0,0,0,6.54-16.32Zm-55.42,14.11V124.79h67.66v66h-25l-4.93-50.49,6.63,9.35Z"/><path d="M690.43,127l-8.33,51.17-14.28-16H765.4v28.56H646.91L656.6,127l-9.69-63.75H764.55V91.81H667.82l14.28-16Zm69.36-12.75v25.5H666.46v-25.5Z"/><path d="M904,166.1l-10.88,2.21V63.25h34.17v127.5H882.87L809.26,85.86,820,83.65v107.1H785.8V63.25h45.56Z"/><path d="M1092.64,137.37a58,58,0,0,1-11.56,29.49,63.91,63.91,0,0,1-25.41,19.64q-15.72,7-36.13,7-22.26,0-38.93-8.33a62.71,62.71,0,0,1-25.92-23.29q-9.27-15-9.27-34.85t9.27-34.85a62.71,62.71,0,0,1,25.92-23.29q16.67-8.32,38.93-8.33,20.4,0,36.13,7a64,64,0,0,1,25.41,19.63,58.09,58.09,0,0,1,11.56,29.5h-35.36a30.1,30.1,0,0,0-6.63-13.86A31.77,31.77,0,0,0,1037.82,94,50.42,50.42,0,0,0,1019.54,91q-11.89,0-20.57,4.33a30.59,30.59,0,0,0-13.26,12.41q-4.59,8.08-4.59,19.3t4.59,19.29A30.53,30.53,0,0,0,999,158.7q8.67,4.34,20.57,4.34a53,53,0,0,0,18.28-2.89,30,30,0,0,0,12.83-8.67,30.73,30.73,0,0,0,6.63-14.11Z"/><path d="M1085.5,63.25h39.1l46.24,58.82H1155l46.07-58.82h39.1l-66,83.81-22.61.34Zm59.84,127.5V128.7h35.36v62.05Z"/></g></g></svg>