<svg xmlns="http://www.w3.org/2000/svg" viewBox="0 0 779.47 188"><defs><style>.cls-1{fill:#fff;}</style></defs><title>Logo-Light</title><g id="Layer_2" data-name="Layer 2"><g id="Layer_1-2" data-name="Layer 1"><path class="cls-1" d="M279.52,50.8l41.69,82.5h-6.93l-40.48-81h5.39l-40.59,81h-6.93l41.69-82.5Zm-32.78,60.5v-5.5h58.52v5.5Z"/><path class="cls-1" d="M410.31,97.22a36.74,36.74,0,0,1-3,14.85A35.19,35.19,0,0,1,398.93,124,38.61,38.61,0,0,1,386,131.82a46.68,46.68,0,0,1-16.5,2.8,51.71,51.71,0,0,1-18.26-3.08A41.51,41.51,0,0,1,337,122.8a38.71,38.71,0,0,1-9.24-13.48,44.43,44.43,0,0,1-3.25-17.27,44.5,44.5,0,0,1,3.25-17.27,38.49,38.49,0,0,1,9.29-13.47,42.22,42.22,0,0,1,14.36-8.75,52.34,52.34,0,0,1,18.31-3.08,50.35,50.35,0,0,1,20.68,4.07,38.54,38.54,0,0,1,14.74,11.11,29.83,29.83,0,0,1,6.49,16h-6.38A28.1,28.1,0,0,0,399.2,67.3a31.59,31.59,0,0,0-12.26-8.91,44.91,44.91,0,0,0-17.55-3.19,42.84,42.84,0,0,0-20.29,4.57,33,33,0,0,0-13.42,12.81,38.13,38.13,0,0,0-4.79,19.47,38.23,38.23,0,0,0,4.79,19.42,32.78,32.78,0,0,0,13.47,12.87,43.2,43.2,0,0,0,20.35,4.56q11.44,0,19.91-4.4a31.79,31.79,0,0,0,17.71-29.15Zm-35.64,2.86v-5.5h38.06V133.3h-5.28l-.33-35.75,2.42,2.53Z"/><path class="cls-1" d="M440.67,92.05l-6.82,40.7-4-5h64.9v5.5h-67.1l6.93-41.25L427.69,50.8h66.55v5.5H429.89l4-4.84ZM492,89.3v5.5H437.15V89.3Z"/><path class="cls-1" d="M587.52,131.76h-4.29v-81h5.94v82.5h-8l-67.87-81h4.29v81h-5.94V50.8h8Z"/><path class="cls-1" d="M693,102.5a32.82,32.82,0,0,1-6.77,16.72,37.93,37.93,0,0,1-14.85,11.33,50.82,50.82,0,0,1-20.84,4.07q-13.42,0-23.54-5.39a39,39,0,0,1-15.73-15,43.23,43.23,0,0,1-5.61-22.17,43.13,43.13,0,0,1,5.61-22.22,39.18,39.18,0,0,1,15.73-15q10.11-5.38,23.54-5.39a51,51,0,0,1,20.84,4.07,38.29,38.29,0,0,1,14.85,11.28A32.6,32.6,0,0,1,693,81.6h-6.38a29.26,29.26,0,0,0-6.16-14,31.74,31.74,0,0,0-12.54-9.18,45.05,45.05,0,0,0-17.6-3.25,42.65,42.65,0,0,0-20.19,4.57,32.55,32.55,0,0,0-13.36,12.81q-4.74,8.25-4.73,19.47a38.51,38.51,0,0,0,4.73,19.42,32.44,32.44,0,0,0,13.36,12.87,42.65,42.65,0,0,0,20.19,4.56,45.06,45.06,0,0,0,17.6-3.24,31.76,31.76,0,0,0,12.54-9.19,29.22,29.22,0,0,0,6.16-14Z"/><path class="cls-1" d="M695,50.8h7.37L740.2,97.33h-5.61L772.1,50.8h7.37l-40.26,49.72h-3.74Zm39.27,82.5V94.69h6.16V133.3Z"/><path class="cls-1" d="M94,0A94,94,0,0,0,11.31,138.75s0,0,0-.05c.42-2.45,8-44.64,27.32-68.81a.94.94,0,0,1,.41-.29A39.14,39.14,0,0,1,54.64,54.86q10.13-5.38,23.54-5.39A51.07,51.07,0,0,1,99,53.54a38.2,38.2,0,0,1,14.85,11.28,32.59,32.59,0,0,1,6.76,16.77h-6.38a29.16,29.16,0,0,0-6.16-14,31.74,31.74,0,0,0-12.54-9.18,43.83,43.83,0,0,0-15.9-3.21V89.29H142.8V50.79H149v82.5H142.8V94.79H79.66v34.07a44.25,44.25,0,0,0,15.9-3.21,31.85,31.85,0,0,0,12.54-9.19,29.12,29.12,0,0,0,6.16-14h6.38a32.81,32.81,0,0,1-6.76,16.72A37.93,37.93,0,0,1,99,130.54a50.9,50.9,0,0,1-20.85,4.07q-13.43,0-23.54-5.39a39,39,0,0,1-15.73-15A43.23,43.23,0,0,1,33.3,92,51,51,0,0,1,34,83.51c-7.26,15.77-16.21,39.05-18.59,62.08A94,94,0,1,0,94,0Z"/><path class="cls-1" d="M57.78,124.33a40.29,40.29,0,0,0,15.72,4.36V55.39a40.29,40.29,0,0,0-15.72,4.37A32.58,32.58,0,0,0,44.41,72.57,38.52,38.52,0,0,0,39.68,92a38.61,38.61,0,0,0,4.73,19.42A32.59,32.59,0,0,0,57.78,124.33Z"/></g></g></svg>